<svg xmlns="http://www.w3.org/2000/svg" viewBox="0 -0.5 32 29" shape-rendering="crispEdges">

<path stroke="#bfbf00" d="M14 0h1M13 1h1M12 2h1M11 3h1M10 4h1M9 5h1M8 6h1M7 7h1M6 8h1M2 9h4M1 10h1M5 10h1M0 11h1M4 11h1M0 12h1M4 12h1M0 13h1M4 13h1M0 14h1M4 14h1M0 15h1M4 15h1M0 16h1M4 16h1M0 17h1M4 17h1M1 18h5M6 19h1M7 20h1M8 21h2M9 22h3M10 23h3M11 24h2M12 25h2M13 26h1M14 27h1" />
<path stroke="#000000" d="M15 0h2M15 1h1M14 2h1M14 3h1M13 5h1M13 6h1M13 7h1M12 8h1M12 9h1M12 10h1M12 11h2M12 12h1M16 12h1M12 13h1M16 13h1M12 14h1M16 14h1M12 15h1M16 15h1M12 16h1M16 16h1M12 17h4M12 18h1M2 19h4M12 19h1M6 20h1M12 20h1M7 21h1M13 21h1M8 22h1M13 22h1M9 23h1M13 23h1M10 24h1M11 25h1M14 25h1M12 26h1M14 26h1M13 27h1M15 27h1M14 28h3" />
<path stroke="#808080" d="M27 0h1M17 1h1M25 1h2M18 2h1M23 2h2M18 3h1M21 3h2M13 4h2M19 4h1M19 5h1M19 6h1M30 6h1M19 7h1M27 7h3M13 8h1M20 8h1M24 8h3M13 9h1M20 9h1M23 9h1M13 10h1M20 10h1M14 11h2M20 11h1M13 12h1M15 12h1M20 12h1M13 13h1M15 13h1M20 13h1M13 14h1M15 14h1M20 14h1M23 14h9M13 15h1M15 15h1M20 15h1M13 16h3M20 16h1M20 17h1M13 18h3M20 18h1M13 19h2M20 19h1M23 19h1M13 20h1M20 20h1M24 20h3M12 21h1M19 21h1M27 21h3M19 22h1M30 22h1M19 23h1M13 24h2M19 24h1M18 25h1M21 25h2M18 26h1M23 26h2M17 27h1M25 27h2M27 28h1" />
<path stroke="#c0c0c0" d="M14 1h1M16 1h1M13 2h1M15 2h1M17 2h1M12 3h2M11 4h1M10 5h1M14 5h1M9 6h1M12 6h1M14 6h1M8 7h1M12 7h1M14 7h1M7 8h1M14 8h1M14 9h1M2 10h3M14 10h1M14 14h1M2 15h1M6 15h1M8 15h1M10 15h1M14 15h1M3 16h1M5 16h1M7 16h1M9 16h1M11 16h1M2 17h1M6 17h1M8 17h1M10 17h1M16 17h1M7 18h1M9 18h1M11 18h1M16 18h1M8 19h1M10 19h1M15 19h1M9 20h1M11 20h1M14 20h1M10 21h1M14 21h1M12 22h1M14 22h1M14 23h1M15 26h1M17 26h1M16 27h1" />
<path stroke="#ffffff" d="M16 2h1M15 3h3M15 4h4M12 5h1M15 5h4M11 6h1M15 6h4M10 7h1M15 7h4M9 8h1M11 8h1M15 8h5M8 9h1M10 9h2M15 9h5M7 10h5M15 10h5M1 11h2M5 11h7M16 11h4M1 12h3M5 12h7M14 12h1M17 12h3M1 13h2M6 13h1M8 13h1M10 13h1M14 13h1M17 13h3M1 14h1M3 14h1M5 14h1M7 14h1M9 14h1M11 14h1M17 14h3M1 15h1M17 15h3M1 16h1M17 16h3M1 17h1M17 17h3M17 18h3M16 19h4M15 20h5M15 21h4M15 22h4M15 23h4M15 24h4M15 25h3M16 26h1" />
<path stroke="#ffff00" d="M12 4h1M11 5h1M10 6h1M9 7h1M11 7h1M8 8h1M10 8h1M6 9h2M9 9h1M6 10h1M3 11h1M3 13h1M5 13h1M7 13h1M9 13h1M11 13h1M2 14h1M6 14h1M8 14h1M10 14h1M3 15h1M5 15h1M7 15h1M9 15h1M11 15h1M2 16h1M6 16h1M8 16h1M10 16h1M3 17h1M5 17h1M7 17h1M9 17h1M11 17h1M6 18h1M8 18h1M10 18h1M7 19h1M9 19h1M11 19h1M8 20h1M10 20h1M11 21h1" />
</svg>